<?xml version="1.0" standalone="no"?>
<!DOCTYPE svg PUBLIC "-//W3C//DTD SVG 20010904//EN"
 "http://www.w3.org/TR/2001/REC-SVG-20010904/DTD/svg10.dtd">
<svg version="1.0" xmlns="http://www.w3.org/2000/svg"
 width="812.000000pt" height="812.000000pt" viewBox="0 0 812.000000 812.000000"
 preserveAspectRatio="xMidYMid meet">
<metadata>
Created by potrace 1.11, written by Peter Selinger 2001-2013
</metadata>
<g transform="translate(0.000000,812.000000) scale(0.100000,-0.100000)"
fill="#000000" stroke="none">
<path d="M6710 7821 c-38 -27 -69 -32 -139 -20 l-64 12 -85 -44 c-46 -24 -104
-63 -128 -86 -24 -24 -51 -43 -61 -43 -9 0 -41 -14 -72 -32 -46 -26 -70 -32
-136 -36 -51 -3 -93 -12 -115 -23 -38 -21 -85 -24 -123 -10 -42 16 -64 3 -77
-43 -22 -78 -70 -113 -185 -135 -64 -13 -135 -39 -135 -51 0 -4 -8 -10 -17
-14 -24 -7 -50 -26 -84 -58 -15 -14 -54 -34 -86 -43 -54 -15 -141 -59 -153
-76 -11 -15 -97 -57 -130 -63 -19 -3 -53 -22 -74 -41 -63 -56 -138 -67 -231
-33 -44 15 -57 50 -63 161 l-4 97 -39 0 c-36 0 -39 2 -50 43 -20 68 -17 175 6
222 10 21 27 47 36 56 9 9 31 38 50 65 40 58 52 72 102 109 84 62 65 93 -29
48 -81 -38 -168 -38 -237 0 -37 21 -61 27 -108 27 -59 0 -128 -24 -145 -51 -3
-6 -27 -21 -53 -33 -25 -12 -67 -36 -93 -54 -26 -17 -51 -32 -56 -32 -6 0 -12
-4 -14 -8 -7 -17 -96 -70 -145 -86 -29 -10 -56 -22 -59 -27 -3 -6 -35 -24 -69
-41 -35 -16 -71 -38 -81 -49 -9 -10 -23 -19 -31 -19 -7 0 -35 -21 -61 -46 -26
-25 -63 -54 -82 -64 -19 -10 -48 -35 -65 -55 -110 -138 -197 -223 -317 -308
-36 -26 -74 -54 -82 -63 -22 -21 -116 -84 -127 -84 -5 0 -9 -4 -9 -9 0 -5 -9
-12 -19 -16 -11 -3 -33 -18 -50 -33 -48 -44 -74 -62 -88 -62 -7 0 -13 -4 -13
-8 0 -5 -19 -17 -42 -27 -24 -10 -66 -35 -93 -55 -28 -21 -76 -52 -107 -69
-32 -18 -68 -43 -80 -57 -13 -13 -27 -24 -32 -24 -6 0 -21 -11 -35 -24 -15
-13 -46 -34 -71 -47 -25 -13 -50 -29 -57 -35 -6 -6 -34 -25 -62 -43 -28 -18
-51 -36 -51 -40 0 -4 -25 -20 -55 -36 -30 -17 -55 -33 -55 -37 0 -5 -5 -8 -10
-8 -6 0 -18 -8 -28 -17 -32 -30 -60 -51 -119 -90 -32 -21 -59 -41 -61 -45 -2
-5 -10 -8 -18 -8 -8 0 -14 -4 -14 -8 0 -4 -13 -16 -30 -25 -16 -10 -53 -41
-82 -70 -29 -29 -70 -63 -90 -76 -21 -12 -38 -27 -38 -32 0 -5 -11 -15 -25
-21 -14 -6 -25 -15 -25 -20 0 -11 -100 -108 -111 -108 -4 0 -11 -9 -14 -20 -3
-11 -10 -20 -14 -20 -5 0 -21 -19 -37 -42 -16 -24 -51 -65 -79 -93 -59 -59
-167 -217 -224 -328 -22 -43 -47 -85 -56 -93 -8 -9 -15 -22 -15 -30 0 -8 -3
-14 -8 -14 -4 0 -15 -17 -24 -37 -10 -21 -24 -49 -32 -63 -20 -34 -126 -261
-126 -270 0 -7 -20 -56 -63 -150 -11 -25 -35 -105 -54 -178 -18 -74 -43 -159
-54 -190 -79 -217 -129 -414 -129 -506 0 -34 -9 -95 -20 -136 -17 -66 -20
-109 -20 -365 0 -311 6 -371 54 -518 15 -43 26 -99 26 -125 1 -41 35 -155 94
-307 8 -22 15 -50 16 -61 0 -12 9 -33 20 -47 11 -14 20 -29 20 -34 0 -7 43
-95 111 -225 7 -13 16 -30 20 -38 28 -55 114 -190 121 -190 4 0 8 -5 8 -11 0
-6 11 -20 25 -31 14 -11 25 -26 25 -34 0 -8 3 -14 8 -14 4 0 23 -16 42 -36 19
-19 48 -47 64 -62 76 -72 136 -135 237 -249 14 -16 33 -32 42 -36 9 -3 17 -11
17 -16 0 -6 14 -18 31 -27 33 -16 109 -91 109 -106 0 -4 4 -8 10 -8 11 0 42
-24 72 -55 10 -11 43 -33 73 -50 30 -16 89 -51 132 -76 43 -25 96 -52 118 -60
22 -7 58 -27 80 -45 22 -17 60 -42 84 -55 24 -13 58 -32 75 -41 17 -9 40 -17
50 -18 22 0 106 -40 106 -51 0 -12 86 -48 156 -64 37 -8 73 -20 79 -25 6 -5
38 -12 71 -16 67 -7 126 -23 135 -36 3 -5 70 -13 147 -18 78 -5 145 -11 150
-13 4 -3 198 -1 432 3 l425 8 85 31 c47 17 101 31 120 31 47 0 100 16 179 52
37 17 83 37 105 44 21 8 55 32 77 53 31 33 49 42 99 52 34 6 67 17 73 24 7 6
33 17 59 24 26 7 55 21 66 31 11 10 38 23 60 29 22 6 51 20 64 31 12 10 60 31
105 46 76 24 85 30 106 68 13 24 31 42 43 44 12 2 38 18 59 37 20 19 54 45 74
57 20 12 45 31 56 42 12 12 36 32 54 45 45 32 65 49 109 95 20 21 57 57 81 80
98 91 151 149 151 164 0 4 16 24 35 46 19 21 35 42 35 46 0 4 14 23 31 41 17
19 37 50 46 69 14 32 49 82 72 103 5 5 21 19 35 32 17 16 26 35 26 53 0 43 23
91 69 147 23 27 41 56 41 63 0 28 30 70 55 76 14 4 25 13 25 21 0 8 4 15 9 15
5 0 12 13 16 29 3 16 15 40 27 53 32 37 78 106 78 117 0 6 4 11 9 11 12 0 60
97 82 167 11 33 26 74 34 90 8 15 15 31 15 35 0 13 74 118 82 118 4 0 8 7 8
15 0 27 48 112 75 133 14 11 30 35 37 53 6 17 18 40 27 49 29 30 61 74 61 84
0 5 15 23 34 40 23 21 42 54 59 101 37 103 37 104 55 110 10 2 27 24 40 48 12
23 33 54 46 68 55 60 52 98 -10 115 -28 8 -41 18 -46 35 -32 110 -41 169 -45
281 -4 139 6 189 53 261 13 21 29 61 34 90 7 34 18 58 33 70 12 9 31 24 42 33
17 12 20 27 20 90 1 75 12 100 41 90 23 -8 36 13 43 70 9 77 21 96 79 132 51
31 62 53 62 128 0 45 17 81 61 130 24 27 39 56 44 82 3 22 15 58 25 78 17 32
19 51 14 143 -8 134 5 209 43 250 66 71 80 96 98 172 8 37 24 86 35 110 11 24
20 58 20 75 0 44 35 75 134 119 59 26 88 45 97 64 8 14 26 42 41 61 37 48 48
99 48 216 0 91 2 103 25 134 l25 35 -31 28 -31 29 3 112 c2 98 0 116 -19 153
-12 23 -22 53 -22 67 0 13 -6 31 -13 38 -44 44 -47 86 -8 113 36 24 51 54 51
103 0 25 8 46 25 66 40 46 34 61 -40 119 -16 13 -38 26 -47 30 -10 3 -27 21
-39 39 -18 29 -20 43 -14 120 5 72 3 92 -11 113 -16 24 -19 25 -136 25 -65 0
-139 -5 -163 -11 -51 -13 -109 1 -125 31 -7 13 -25 19 -74 22 -50 3 -73 10
-107 33 -40 28 -48 30 -122 27 -104 -3 -145 10 -163 54 -16 39 -20 40 -54 15z"/>
</g>
</svg>
